<mxfile host="65bd71144e">
    <diagram id="OrtFiiRgjL9DmGz3gOvC" name="Page-1">
        <mxGraphModel dx="944" dy="249" grid="1" gridSize="10" guides="1" tooltips="1" connect="1" arrows="1" fold="1" page="1" pageScale="1" pageWidth="850" pageHeight="1100" math="0" shadow="0">
            <root>
                <mxCell id="0"/>
                <mxCell id="1" parent="0"/>
                <mxCell id="2" value="inicio" style="rounded=1;whiteSpace=wrap;html=1;" parent="1" vertex="1">
                    <mxGeometry x="365" width="120" height="60" as="geometry"/>
                </mxCell>
                <mxCell id="3" value="&quot;adivine el numero&quot;" style="shape=display;whiteSpace=wrap;html=1;" parent="1" vertex="1">
                    <mxGeometry x="345" y="120" width="160" height="90" as="geometry"/>
                </mxCell>
                <mxCell id="4" value="numero por adivinar" style="shape=parallelogram;perimeter=parallelogramPerimeter;whiteSpace=wrap;html=1;fixedSize=1;" parent="1" vertex="1">
                    <mxGeometry x="340" y="280" width="165" height="80" as="geometry"/>
                </mxCell>
                <mxCell id="5" value="numero por adivinar=numero secreto" style="rhombus;whiteSpace=wrap;html=1;" parent="1" vertex="1">
                    <mxGeometry x="300" y="450" width="250" height="170" as="geometry"/>
                </mxCell>
                <mxCell id="6" value="&quot;intente de nuevo&quot;" style="shape=display;whiteSpace=wrap;html=1;" parent="1" vertex="1">
                    <mxGeometry x="80" y="500" width="150" height="90" as="geometry"/>
                </mxCell>
                <mxCell id="7" value="&quot;numero correcto&quot;" style="shape=display;whiteSpace=wrap;html=1;" parent="1" vertex="1">
                    <mxGeometry x="600" y="505" width="130" height="90" as="geometry"/>
                </mxCell>
                <mxCell id="8" value="fin" style="rounded=1;whiteSpace=wrap;html=1;" parent="1" vertex="1">
                    <mxGeometry x="620" y="700" width="120" height="60" as="geometry"/>
                </mxCell>
                <mxCell id="9" value="" style="endArrow=classic;html=1;elbow=vertical;entryX=0.051;entryY=0.693;entryDx=0;entryDy=0;entryPerimeter=0;" parent="1" target="3" edge="1">
                    <mxGeometry width="50" height="50" relative="1" as="geometry">
                        <mxPoint x="170" y="500" as="sourcePoint"/>
                        <mxPoint x="280" y="480" as="targetPoint"/>
                    </mxGeometry>
                </mxCell>
                <mxCell id="10" value="" style="endArrow=classic;html=1;elbow=vertical;entryX=0.5;entryY=0;entryDx=0;entryDy=0;" parent="1" target="8" edge="1">
                    <mxGeometry width="50" height="50" relative="1" as="geometry">
                        <mxPoint x="670" y="595" as="sourcePoint"/>
                        <mxPoint x="710" y="655" as="targetPoint"/>
                    </mxGeometry>
                </mxCell>
                <mxCell id="11" value="" style="endArrow=classic;html=1;elbow=vertical;entryX=1.011;entryY=0.329;entryDx=0;entryDy=0;entryPerimeter=0;" parent="1" target="6" edge="1">
                    <mxGeometry width="50" height="50" relative="1" as="geometry">
                        <mxPoint x="310" y="520" as="sourcePoint"/>
                        <mxPoint x="395" y="575" as="targetPoint"/>
                    </mxGeometry>
                </mxCell>
                <mxCell id="12" value="" style="endArrow=classic;html=1;elbow=vertical;entryX=0.065;entryY=0.264;entryDx=0;entryDy=0;entryPerimeter=0;exitX=0.958;exitY=0.445;exitDx=0;exitDy=0;exitPerimeter=0;" parent="1" source="5" target="7" edge="1">
                    <mxGeometry width="50" height="50" relative="1" as="geometry">
                        <mxPoint x="540" y="520" as="sourcePoint"/>
                        <mxPoint x="545" y="575" as="targetPoint"/>
                    </mxGeometry>
                </mxCell>
                <mxCell id="13" value="" style="endArrow=classic;html=1;elbow=vertical;entryX=0.5;entryY=0;entryDx=0;entryDy=0;" parent="1" target="5" edge="1">
                    <mxGeometry width="50" height="50" relative="1" as="geometry">
                        <mxPoint x="425" y="370" as="sourcePoint"/>
                        <mxPoint x="460" y="440" as="targetPoint"/>
                    </mxGeometry>
                </mxCell>
                <mxCell id="14" value="" style="endArrow=classic;html=1;elbow=vertical;exitX=0;exitY=0;exitDx=77.5;exitDy=90;exitPerimeter=0;" parent="1" source="3" edge="1">
                    <mxGeometry width="50" height="50" relative="1" as="geometry">
                        <mxPoint x="425" y="250" as="sourcePoint"/>
                        <mxPoint x="423" y="280" as="targetPoint"/>
                    </mxGeometry>
                </mxCell>
                <mxCell id="15" value="" style="endArrow=classic;html=1;elbow=vertical;exitX=0.5;exitY=1;exitDx=0;exitDy=0;" parent="1" source="2" edge="1">
                    <mxGeometry width="50" height="50" relative="1" as="geometry">
                        <mxPoint x="420" y="80" as="sourcePoint"/>
                        <mxPoint x="425" y="120" as="targetPoint"/>
                    </mxGeometry>
                </mxCell>
                <mxCell id="19" value="verdadero" style="text;html=1;strokeColor=none;fillColor=none;align=center;verticalAlign=middle;whiteSpace=wrap;rounded=0;" parent="1" vertex="1">
                    <mxGeometry x="540" y="490" width="60" height="30" as="geometry"/>
                </mxCell>
                <mxCell id="20" value="falso" style="text;html=1;strokeColor=none;fillColor=none;align=center;verticalAlign=middle;whiteSpace=wrap;rounded=0;" parent="1" vertex="1">
                    <mxGeometry x="250" y="500" width="60" height="30" as="geometry"/>
                </mxCell>
            </root>
        </mxGraphModel>
    </diagram>
</mxfile>